<svg width="512" height="512" viewBox="0 0 512 512" fill="none" xmlns="http://www.w3.org/2000/svg">
<g clip-path="url(#clip0_314_8)">
<path d="M96 77.3C96 70 101.9 64 109.3 64C112.8 64 116.2 65.4 118.7 67.9L133.6 82.8C130 91.8 128 101.7 128 112C128 131.9 135.2 150 147.2 164C141.9 173.2 143.2 185.1 151 193C160.4 202.4 175.6 202.4 184.9 193L289 89C298.4 79.6 298.4 64.4 289 55.1C281.1 47.2 269.2 46 260 51.3C246 39.2 227.9 32 208 32C197.7 32 187.8 34 178.8 37.5L163.9 22.6C149.4 8.1 129.7 0 109.3 0C66.6 0 32 34.6 32 77.3V256C14.3 256 0 270.3 0 288C0 305.7 14.3 320 32 320H480C497.7 320 512 305.7 512 288C512 270.3 497.7 256 480 256H96V77.3ZM32 352V368C32 396.4 44.4 422 64 439.6V480C64 497.7 78.3 512 96 512C113.7 512 128 497.7 128 480V464H384V480C384 497.7 398.3 512 416 512C433.7 512 448 497.7 448 480V439.6C467.6 422 480 396.5 480 368V352H32Z" fill="white"/>
</g>
<defs>
<clipPath id="clip0_314_8">
<rect width="512" height="512" fill="white"/>
</clipPath>
</defs>
</svg>
