<svg width="576" height="512" viewBox="0 0 576 512" fill="none" xmlns="http://www.w3.org/2000/svg">
<g clip-path="url(#clip0_314_10)">
<path d="M275.5 6.6C278.3 2.5 283 0 288 0C293 0 297.7 2.5 300.5 6.6L366.8 103C378 119.3 384 138.6 384 158.3V160C384 213 341 256 288 256C235 256 192 213 192 160V158.3C192 138.5 198 119.3 209.2 103L275.5 6.6ZM568.2 336.3C581.3 354.1 577.5 379.1 559.7 392.2L433.1 485.5C409.7 502.7 381.5 512 352.4 512H192H32C14.3 512 0 497.7 0 480V416C0 398.3 14.3 384 32 384H68.8L113.7 348C136.4 329.8 164.6 320 193.7 320H272H288H352C369.7 320 384 334.3 384 352C384 369.7 369.7 384 352 384H288H272C263.2 384 256 391.2 256 400C256 408.8 263.2 416 272 416H392.6L512.3 327.8C530.1 314.7 555.1 318.5 568.2 336.3ZM193.6 384H192.7C193 384 193.3 384 193.6 384Z" fill="white"/>
</g>
<defs>
<clipPath id="clip0_314_10">
<rect width="576" height="512" fill="white"/>
</clipPath>
</defs>
</svg>
