<svg width="512" height="512" viewBox="0 0 512 512" fill="none" xmlns="http://www.w3.org/2000/svg">
<path d="M64 131.9C64 112.1 80.1 96 99.9 96C109.4 96 118.5 99.8 125.3 106.5L141.5 122.7C120.5 161.6 124.1 210.2 152.4 245.7L151 247C141.6 256.4 141.6 271.6 151 280.9C160.4 290.2 175.6 290.3 184.9 280.9L345 121C354.4 111.6 354.4 96.4 345 87.1C335.6 77.8 320.4 77.7 311.1 87.1L309.8 88.4C274.3 60.1 225.6 56.5 186.8 77.5L170.5 61.3C151.8 42.5 126.4 32 99.9 32C44.7 32 0 76.7 0 131.9V448C0 465.7 14.3 480 32 480C49.7 480 64 465.7 64 448V131.9ZM256 352C264.487 352 272.626 348.629 278.627 342.627C284.629 336.626 288 328.487 288 320C288 311.513 284.629 303.374 278.627 297.373C272.626 291.371 264.487 288 256 288C247.513 288 239.374 291.371 233.373 297.373C227.371 303.374 224 311.513 224 320C224 328.487 227.371 336.626 233.373 342.627C239.374 348.629 247.513 352 256 352ZM320 416C320 407.513 316.629 399.374 310.627 393.373C304.626 387.371 296.487 384 288 384C279.513 384 271.374 387.371 265.373 393.373C259.371 399.374 256 407.513 256 416C256 424.487 259.371 432.626 265.373 438.627C271.374 444.629 279.513 448 288 448C296.487 448 304.626 444.629 310.627 438.627C316.629 432.626 320 424.487 320 416ZM320 288C328.487 288 336.626 284.629 342.627 278.627C348.629 272.626 352 264.487 352 256C352 247.513 348.629 239.374 342.627 233.373C336.626 227.371 328.487 224 320 224C311.513 224 303.374 227.371 297.373 233.373C291.371 239.374 288 247.513 288 256C288 264.487 291.371 272.626 297.373 278.627C303.374 284.629 311.513 288 320 288ZM384 352C384 343.513 380.629 335.374 374.627 329.373C368.626 323.371 360.487 320 352 320C343.513 320 335.374 323.371 329.373 329.373C323.371 335.374 320 343.513 320 352C320 360.487 323.371 368.626 329.373 374.627C335.374 380.629 343.513 384 352 384C360.487 384 368.626 380.629 374.627 374.627C380.629 368.626 384 360.487 384 352ZM384 224C392.487 224 400.626 220.629 406.627 214.627C412.629 208.626 416 200.487 416 192C416 183.513 412.629 175.374 406.627 169.373C400.626 163.371 392.487 160 384 160C375.513 160 367.374 163.371 361.373 169.373C355.371 175.374 352 183.513 352 192C352 200.487 355.371 208.626 361.373 214.627C367.374 220.629 375.513 224 384 224ZM448 288C448 279.513 444.629 271.374 438.627 265.373C432.626 259.371 424.487 256 416 256C407.513 256 399.374 259.371 393.373 265.373C387.371 271.374 384 279.513 384 288C384 296.487 387.371 304.626 393.373 310.627C399.374 316.629 407.513 320 416 320C424.487 320 432.626 316.629 438.627 310.627C444.629 304.626 448 296.487 448 288ZM480 256C488.487 256 496.626 252.629 502.627 246.627C508.629 240.626 512 232.487 512 224C512 215.513 508.629 207.374 502.627 201.373C496.626 195.371 488.487 192 480 192C471.513 192 463.374 195.371 457.373 201.373C451.371 207.374 448 215.513 448 224C448 232.487 451.371 240.626 457.373 246.627C463.374 252.629 471.513 256 480 256Z" fill="white"/>
</svg>
