<svg width="512" height="512" viewBox="0 0 512 512" fill="none" xmlns="http://www.w3.org/2000/svg">
<g clip-path="url(#clip0_314_6)">
<path d="M288 96C288 78.3 302.3 64 320 64C337.7 64 352 78.3 352 96C352 113.7 366.3 128 384 128C401.7 128 416 113.7 416 96C416 43 373 0 320 0C267 0 224 43 224 96V288H160V264C160 233.1 134.9 208 104 208H56C42.7 208 32 218.7 32 232C32 245.3 42.7 256 56 256H104C108.4 256 112 259.6 112 264V288H32C14.3 288 0 302.3 0 320C0 337.7 14.3 352 32 352H256H480C497.7 352 512 337.7 512 320C512 302.3 497.7 288 480 288H400V264C400 259.6 403.6 256 408 256H464C477.3 256 488 245.3 488 232C488 218.7 477.3 208 464 208H408C377.1 208 352 233.1 352 264V288H288V96ZM480 416V384H32V416C32 469 75 512 128 512H384C437 512 480 469 480 416Z" fill="white"/>
</g>
<defs>
<clipPath id="clip0_314_6">
<rect width="512" height="512" fill="white"/>
</clipPath>
</defs>
</svg>
