<svg width="448" height="512" viewBox="0 0 448 512" fill="none" xmlns="http://www.w3.org/2000/svg">
<g clip-path="url(#clip0_313_2)">
<path d="M24 0C10.7 0 0 10.7 0 24C0 37.3 10.7 48 24 48H32V196.9C30.1 198.3 28.2 199.8 26.4 201.3C10.9 214.5 0 232.9 0 256C0 302.9 14.3 340.1 37 368.5C51.2 386.2 68.1 399.8 85.5 410.3L65.6 469.9C62.3 479.7 64 490.4 70 498.7C76 507 85.7 512 96 512H352C362.3 512 371.9 507.1 378 498.7C384.1 490.3 385.7 479.6 382.4 469.9L362.6 410.4C380 399.9 396.9 386.3 411.1 368.6C433.8 340.2 448.1 303.1 448.1 256.1C448.1 233 437.2 214.6 421.7 201.5C419.9 200 418 198.5 416.1 197.1V48H424.1C437.4 48 448.1 37.3 448.1 24C448.1 10.7 437.4 0 424.1 0H24ZM384 256.3C384 257.3 383.7 258.9 380.2 261.9C375.4 266 366.2 270.9 350.9 275.3C320.5 284 276.1 288 224 288C171.9 288 127.5 284 97.1 275.2C81.8 270.8 72.6 265.9 67.8 261.8C64.3 258.8 64 257.2 64 256.2V255.9V255.8C64 254.8 64 253.3 67.8 250C72.6 245.9 81.8 241 97.1 236.6C127.5 228 171.9 224 224 224C276.1 224 320.5 228 350.9 236.8C366.2 241.2 375.4 246.1 380.2 250.2C384 253.4 384 255 384 256V256.1V256.4V256.3ZM328.2 384L328 384.5V384H328.2ZM112 64H144C152.8 64 160 71.2 160 80C160 88.8 152.8 96 144 96H112C103.2 96 96 88.8 96 80C96 71.2 103.2 64 112 64Z" fill="white"/>
</g>
<defs>
<clipPath id="clip0_313_2">
<rect width="448" height="512" fill="white"/>
</clipPath>
</defs>
</svg>
